<svg id="eq6bEDmpluy1" xmlns="http://www.w3.org/2000/svg" xmlns:xlink="http://www.w3.org/1999/xlink" viewBox="0 0 2050 2050" shape-rendering="geometricPrecision" text-rendering="geometricPrecision"><g transform="translate(4 0)" clip-rule="evenodd"><g transform="translate(-262.439631 0)"><path d="M1550.1,1798.4h652.7c135.3-.1,244.9-109.9,244.8-245.2.2-135.3-109.4-245.1-244.7-245.3h-652.7c-135.3.1-244.9,109.9-244.8,245.2-.1,135.4,109.4,245.2,244.7,245.3Z" transform="translate(-200-1307.9)" clip-rule="evenodd" fill="#ecb22e" fill-rule="evenodd"/><path d="M0,1553.2c-.1,135.3,109.5,245.1,244.8,245.2c135.3-.1,244.9-109.9,244.8-245.2v-245.2h-244.8c-135.3.1-244.9,109.9-244.8,245.2Zm652.7,0" transform="matrix(0-1 1 0-202.6 1144.5)" clip-rule="evenodd" fill="#e01e5a" fill-rule="evenodd"/></g></g><path d="M1935.582527,899.7c162.677558,449.384069-21.537137,872.130509-390.160369,1062.3" transform="matrix(1 0 0 0.861226-191.222158 149.57082)" fill="none" stroke="#2eb67d" stroke-width="490" stroke-linecap="round"/><path d="M1935.582527,899.7c162.677558,449.384069-21.537137,872.130509-390.160369,1062.3" transform="matrix(-1 0 0 0.861226 2245.512504 149.57082)" fill="none" stroke="#36c5f0" stroke-width="490" stroke-linecap="round"/></svg>